<svg width="20" height="20" viewBox="0 0 20 20" fill="none" xmlns="http://www.w3.org/2000/svg">
<path d="M4.20167 12.6375C4.20057 13.1943 3.97905 13.7281 3.58553 14.1221C3.19201 14.5161 2.65851 14.7382 2.10167 14.74C1.54453 14.7387 1.01061 14.5167 0.61673 14.1227C0.22285 13.7286 0.0011 13.1946 0 12.6375C0.00154 12.0807 0.22351 11.5472 0.61737 11.1537C1.01122 10.7601 1.5449 10.5386 2.10167 10.5375H4.20167V12.6375ZM5.26083 12.6375C5.26237 12.0809 5.48423 11.5475 5.8779 11.154C6.27158 10.7605 6.80504 10.5388 7.36167 10.5375C7.91829 10.5388 8.4518 10.7605 8.8454 11.154C9.2391 11.5475 9.461 12.0809 9.4625 12.6375V17.8983C9.4612 18.4552 9.2394 18.9889 8.8458 19.3827C8.4521 19.7765 7.91851 19.9985 7.36167 20C6.80482 19.9985 6.27123 19.7765 5.87756 19.3827C5.48389 18.9889 5.26215 18.4552 5.26083 17.8983V12.6375ZM7.36167 4.20167C6.80511 4.20013 6.27177 3.97841 5.87815 3.58494C5.48452 3.19147 5.26259 2.65822 5.26083 2.10167C5.26215 1.54482 5.48389 1.01114 5.87756 0.61732C6.27123 0.22349 6.80482 0.00154 7.36167 0C7.91851 0.00154 8.4521 0.22349 8.8458 0.61732C9.2394 1.01114 9.4612 1.54482 9.4625 2.10167V4.20167H7.36167ZM7.36167 5.26083C7.91837 5.26237 8.4518 5.4842 8.8455 5.87785C9.2391 6.2715 9.461 6.80496 9.4625 7.36167C9.461 7.91837 9.2391 8.4518 8.8455 8.8455C8.4518 9.2391 7.91837 9.461 7.36167 9.4625H2.10167C1.54482 9.4612 1.01114 9.2394 0.61732 8.8458C0.22349 8.4521 0.00154 7.91851 0 7.36167C0.00154 6.80482 0.22349 6.27123 0.61732 5.87756C1.01114 5.48389 1.54482 5.26215 2.10167 5.26083H7.36167ZM15.7967 7.36167C15.7982 6.80482 16.0202 6.27123 16.414 5.87756C16.8078 5.48389 17.3415 5.26215 17.8983 5.26083C18.4552 5.26215 18.9889 5.48389 19.3827 5.87756C19.7765 6.27123 19.9985 6.80482 20 7.36167C19.9985 7.91851 19.7765 8.4521 19.3827 8.8458C18.9889 9.2394 18.4552 9.4612 17.8983 9.4625H15.7967V7.36167ZM14.74 7.36167C14.7385 7.91866 14.5164 8.4524 14.1224 8.8461C13.7284 9.2398 13.1945 9.4614 12.6375 9.4625C12.0809 9.461 11.5475 9.2391 11.154 8.8454C10.7605 8.4518 10.5388 7.91829 10.5375 7.36167V2.10167C10.5386 1.5449 10.7601 1.01122 11.1537 0.61737C11.5472 0.22351 12.0807 0.00154 12.6375 0C13.1946 0.0011 13.7286 0.22285 14.1227 0.61673C14.5167 1.01061 14.7387 1.54453 14.74 2.10167V7.36167ZM12.6375 15.7967C13.1946 15.7978 13.7286 16.0195 14.1227 16.4134C14.5167 16.8073 14.7387 17.3412 14.74 17.8983C14.7387 18.4555 14.5167 18.9894 14.1227 19.3833C13.7286 19.7771 13.1946 19.9989 12.6375 20C12.0807 19.9985 11.5472 19.7765 11.1537 19.3826C10.7601 18.9888 10.5386 18.4551 10.5375 17.8983V15.7967H12.6375ZM12.6375 14.74C12.0806 14.7385 11.547 14.5164 11.1534 14.1223C10.7598 13.7283 10.5384 13.1944 10.5375 12.6375C10.5388 12.081 10.7605 11.5476 11.154 11.154C11.5476 10.7605 12.081 10.5388 12.6375 10.5375H17.8983C18.4551 10.5386 18.9888 10.7601 19.3826 11.1537C19.7765 11.5472 19.9985 12.0807 20 12.6375C19.9989 13.1946 19.7771 13.7286 19.3833 14.1227C18.9894 14.5167 18.4555 14.7387 17.8983 14.74H12.6375Z" fill="#CED0DE"/>
</svg>
